<svg width="267" height="33" viewBox="0 0 267 33" fill="none" xmlns="http://www.w3.org/2000/svg">
<path d="M12.0324 7.37653V19.9387H23.6926V25.679H5.00317V7.37653H12.0324Z" fill="white"/>
<path d="M30.0189 24.8609C28.0756 24.0983 26.587 23.0029 25.5533 21.5748C24.5196 20.1466 23.9958 18.4689 23.9958 16.5277C23.9958 14.5866 24.5196 12.9088 25.5533 11.4807C26.587 10.0525 28.0756 8.95715 30.0189 8.19454C31.9623 7.43194 34.2365 7.0437 36.8414 7.0437C39.4463 7.0437 41.7205 7.43194 43.6639 8.19454C45.6072 8.95715 47.0958 10.0525 48.1295 11.4807C49.1632 12.9088 49.6869 14.5866 49.6869 16.5277C49.6869 18.4689 49.1632 20.1466 48.1295 21.5748C47.0958 23.0029 45.6072 24.0983 43.6639 24.8609C41.7205 25.6235 39.4463 26.0118 36.8414 26.0118C34.2365 26.0118 31.9623 25.6235 30.0189 24.8609ZM41.0451 19.079C42.1064 18.4273 42.6302 17.5815 42.6302 16.5277C42.6302 15.474 42.1064 14.6282 41.0451 13.9765C39.9839 13.3248 38.5918 13.0059 36.8414 13.0059C35.091 13.0059 33.6989 13.3248 32.6377 13.9765C31.5764 14.6282 31.0526 15.474 31.0526 16.5277C31.0526 17.5815 31.5764 18.4273 32.6377 19.079C33.6989 19.7307 35.091 20.0496 36.8414 20.0496C38.5918 20.0496 39.9977 19.7168 41.0451 19.079Z" fill="white"/>
<path d="M74.4959 25.679H66.3089L61.2093 19.6059L58.6457 22.0185V25.679H51.6165V7.37653H58.6457V13.6992L65.3441 7.37653H74.1651L65.7852 15.2799L74.4959 25.679Z" fill="white"/>
<path d="M95.7765 9.92775C97.8714 11.6332 98.9052 14.0597 98.9052 17.1933V25.5819H90.3598V21.2975C90.0566 22.8088 89.2021 23.9735 87.7825 24.7777C86.3628 25.5958 84.4746 25.9979 82.1177 25.9979C79.7884 25.9979 78.0105 25.5958 76.7838 24.7916C75.5571 23.9874 74.9507 22.8366 74.9507 21.3252C74.9507 19.6475 75.6812 18.3025 77.1284 17.2626C78.5893 16.2366 80.5465 15.6542 83.0136 15.5433L75.6674 11.9521C76.5908 10.5101 78.038 9.38699 79.9952 8.56892C81.9523 7.75086 84.2403 7.34875 86.8452 7.34875C90.7182 7.37649 93.6953 8.22228 95.7765 9.92775ZM89.4777 21.0756C90.0704 20.8261 90.3598 20.4794 90.3598 20.008C90.3598 19.5643 90.0704 19.2177 89.4777 18.9681C88.8851 18.7185 88.0581 18.5798 86.9693 18.5798C85.8804 18.5798 85.0535 18.7046 84.4746 18.9404C83.8957 19.1899 83.6063 19.5366 83.6063 20.008C83.6063 20.4794 83.8957 20.8261 84.4746 21.0756C85.0535 21.3252 85.8804 21.4362 86.9693 21.4362C88.0581 21.45 88.8851 21.3252 89.4777 21.0756ZM84.8329 14.129C84.2954 14.4479 83.9095 14.9193 83.7027 15.5156H83.9095C85.8529 15.5156 87.3414 15.8067 88.3889 16.3891C89.4364 16.9714 90.0842 17.8588 90.346 19.0374V17.1933C90.346 16.084 90.029 15.2105 89.4088 14.5866C88.7886 13.9626 87.9341 13.6437 86.8452 13.6437C86.0596 13.6437 85.3842 13.8101 84.8329 14.129Z" fill="white"/>
<path d="M108.098 7.19629V19.7585H119.759V25.4988H101.069V7.19629H108.098Z" fill="white"/>
<path d="M128.717 7.19629V19.7585H140.378V25.4988H121.688V7.19629H128.717Z" fill="white"/>
<path d="M162.637 9.7475C164.732 11.453 165.765 13.8794 165.765 17.013V25.4017H157.22V21.1172C156.917 22.6286 156.062 23.7933 154.643 24.5975C153.223 25.4017 151.335 25.8177 148.978 25.8177C146.649 25.8177 144.871 25.4156 143.644 24.6114C142.417 23.8072 141.811 22.6563 141.811 21.145C141.811 19.4672 142.542 18.1223 143.989 17.0824C145.45 16.0563 147.407 15.474 149.874 15.363L142.542 11.7857C143.465 10.3437 144.912 9.22061 146.869 8.40254C148.826 7.58447 151.114 7.18237 153.719 7.18237C157.579 7.19624 160.556 8.04204 162.637 9.7475ZM156.338 20.8954C156.931 20.6458 157.22 20.2992 157.22 19.8278C157.22 19.3841 156.931 19.0374 156.338 18.7878C155.745 18.5383 154.918 18.3996 153.83 18.3996C152.741 18.3996 151.914 18.5244 151.335 18.7601C150.756 19.0097 150.467 19.3563 150.467 19.8278C150.467 20.2992 150.756 20.6458 151.335 20.8954C151.914 21.145 152.741 21.2559 153.83 21.2559C154.918 21.2559 155.745 21.145 156.338 20.8954ZM151.707 13.9488C151.17 14.2677 150.784 14.7391 150.577 15.3353H150.784C152.727 15.3353 154.216 15.6265 155.263 16.2088C156.311 16.7912 156.958 17.6786 157.22 18.8572V17.013C157.22 15.9038 156.903 15.0303 156.283 14.4063C155.663 13.7824 154.808 13.4635 153.719 13.4635C152.92 13.4635 152.245 13.616 151.707 13.9488Z" fill="white"/>
<path d="M188.162 16.0702C189.417 16.9992 190.051 18.3303 190.051 20.0635C190.051 23.6824 187.115 25.4988 181.257 25.4988H168.302V7.19629H181.974C184.51 7.19629 186.398 7.50133 187.639 8.09755C188.879 8.69377 189.499 9.62276 189.499 10.8568C189.499 12.077 188.962 12.9782 187.901 13.5744C186.839 14.1707 185.103 14.5312 182.691 14.656C185.089 14.6698 186.908 15.1412 188.162 16.0702ZM175.331 12.5207V14.656H180.899C181.436 14.656 181.822 14.5728 182.071 14.3925C182.319 14.2123 182.443 13.9488 182.443 13.5744C182.443 13.2001 182.319 12.9366 182.071 12.7702C181.822 12.6039 181.436 12.5207 180.899 12.5207H175.331ZM181.202 20.1744C181.822 20.1744 182.277 20.0774 182.567 19.8833C182.856 19.6891 182.994 19.3841 182.994 18.9543C182.994 18.5244 182.856 18.2194 182.567 18.0114C182.277 17.8034 181.822 17.7064 181.202 17.7064H175.331V20.1744H181.202Z" fill="white"/>
<path d="M196.928 24.6807C194.985 23.9181 193.496 22.8227 192.463 21.3946C191.429 19.9664 190.905 18.2887 190.905 16.3475C190.905 14.4063 191.429 12.7286 192.463 11.3004C193.496 9.87229 194.985 8.77691 196.928 8.0143C198.872 7.2517 201.146 6.86346 203.751 6.86346C206.356 6.86346 208.63 7.2517 210.573 8.0143C212.517 8.77691 214.005 9.87229 215.039 11.3004C216.073 12.7286 216.596 14.4063 216.596 16.3475C216.596 18.2887 216.073 19.9664 215.039 21.3946C214.005 22.8227 212.517 23.9181 210.573 24.6807C208.63 25.4433 206.356 25.8315 203.751 25.8315C201.146 25.8315 198.872 25.4433 196.928 24.6807ZM207.955 18.8988C209.016 18.2471 209.54 17.4013 209.54 16.3475C209.54 15.2937 209.016 14.4479 207.955 13.7962C206.893 13.1446 205.501 12.8256 203.751 12.8256C202 12.8256 200.608 13.1446 199.547 13.7962C198.486 14.4479 197.962 15.2937 197.962 16.3475C197.962 17.4013 198.486 18.2471 199.547 18.8988C200.608 19.5504 202 19.8693 203.751 19.8693C205.501 19.8693 206.907 19.5366 207.955 18.8988Z" fill="white"/>
<path d="M240.992 25.4988H233.604C233.232 24.4312 232.998 23.3774 232.888 22.3652C232.791 21.5749 232.515 21.0064 232.047 20.6736C231.578 20.3408 230.861 20.1744 229.883 20.1744H225.555V25.4988H218.526V7.19629H231.702C234.445 7.19629 236.526 7.61226 237.96 8.45805C239.393 9.30385 240.11 10.5379 240.11 12.1602C240.11 14.9887 237.67 16.5555 232.777 16.8467C234.927 16.8467 236.595 17.2211 237.78 17.956C238.966 18.6908 239.655 19.9387 239.862 21.6996C240.027 23.2249 240.413 24.5005 240.992 25.4988ZM225.555 12.9366V16.8467H230.6C232.212 16.8467 233.025 16.195 233.025 14.8778C233.025 13.5883 232.212 12.9366 230.6 12.9366H225.555Z" fill="white"/>
<path d="M262.162 12.9366H250.089V14.8223H260.426V17.8728H250.089V19.7585H262.162V25.4988H243.059V7.19629H262.162V12.9366Z" fill="white"/>
</svg>
